# xmcd
#
# Track frame offsets: 
#        150
#        21857
#        42279
#        62236
#        82248
#        102500
#        122642
#        142859
#        163096
#        183608
#        200285
#        216942
#        233044
#        250196
#        267308
#        284440
#        301252
#
# Disc length: 4313 seconds
#
# Revision: 0
# Processed by: cddbd v1.5.2PL0 Copyright (c) Steve Scherf et al.
# Submitted via: ExactAudioCopy v0.95b4
#
DISCID=fb10d711
DTITLE=The Beatles  - Inside Sgt Pepper - CD 3 
DYEAR=1900
DGENRE=
TTITLE0=ADITL (Take 1 fading into a early 1967 mixdown of Take 6)
TTITLE1=ADITL (rough mix)
TTITLE2=ADITL (backing track with orchestra overdub)
TTITLE3=ADITL (backing track without orchestra overdub)
TTITLE4=ADITL (lead vocal-acoustic guitar-piano)
TTITLE5=ADITL (acoustic guitar-additional piano-right channel)
TTITLE6=ADITL (bass and drums)
TTITLE7=ADITL (orchestral overdub)
TTITLE8=ADITL (2005 remix for anthology dvd)
TTITLE9=She's Leaving Home (rough mix)
TTITLE10=She's Leaving Home(orchestral backing)
TTITLE11=She's Leaving Home (just the vocals)
TTITLE12=She's Leaving Home (orchestral overdub-left channel)
TTITLE13=She's Leaving Home (orchestral overdub-right channel)
TTITLE14=She's Leaving Home (lead and harmony vocals)
TTITLE15=She's Leaving Home (backing vocals)
TTITLE16=Revolution 1 (basic track with unused overdubs)
EXTD=
EXTT0=
EXTT1=
EXTT2=
EXTT3=
EXTT4=
EXTT5=
EXTT6=
EXTT7=
EXTT8=
EXTT9=
EXTT10=
EXTT11=
EXTT12=
EXTT13=
EXTT14=
EXTT15=
EXTT16=
PLAYORDER=
